<svg width="19" height="15" viewBox="0 0 19 15" fill="none" xmlns="http://www.w3.org/2000/svg">
<path d="M7.125 7.125C8.06983 7.125 8.97597 6.74967 9.64407 6.08157C10.3122 5.41347 10.6875 4.50733 10.6875 3.5625C10.6875 2.61767 10.3122 1.71153 9.64407 1.04343C8.97597 0.375334 8.06983 0 7.125 0C6.18017 0 5.27403 0.375334 4.60593 1.04343C3.93783 1.71153 3.5625 2.61767 3.5625 3.5625C3.5625 4.50733 3.93783 5.41347 4.60593 6.08157C5.27403 6.74967 6.18017 7.125 7.125 7.125V7.125ZM9.5 3.5625C9.5 4.19239 9.24978 4.79648 8.80438 5.24188C8.35898 5.68728 7.75489 5.9375 7.125 5.9375C6.49511 5.9375 5.89102 5.68728 5.44562 5.24188C5.00022 4.79648 4.75 4.19239 4.75 3.5625C4.75 2.93261 5.00022 2.32852 5.44562 1.88312C5.89102 1.43772 6.49511 1.1875 7.125 1.1875C7.75489 1.1875 8.35898 1.43772 8.80438 1.88312C9.24978 2.32852 9.5 2.93261 9.5 3.5625V3.5625ZM14.25 13.0625C14.25 14.25 13.0625 14.25 13.0625 14.25H1.1875C1.1875 14.25 0 14.25 0 13.0625C0 11.875 1.1875 8.3125 7.125 8.3125C13.0625 8.3125 14.25 11.875 14.25 13.0625ZM13.0625 13.0578C13.0613 12.7656 12.8796 11.8869 12.0745 11.0817C11.3003 10.3075 9.84319 9.5 7.125 9.5C4.40563 9.5 2.94975 10.3075 2.1755 11.0817C1.37038 11.8869 1.18988 12.7656 1.1875 13.0578H13.0625Z" fill="white"/>
<path fill-rule="evenodd" clip-rule="evenodd" d="M13.0625 6.53125C13.0625 6.37378 13.1251 6.22276 13.2364 6.11141C13.3478 6.00006 13.4988 5.9375 13.6562 5.9375H18.4062C18.5637 5.9375 18.7147 6.00006 18.8261 6.11141C18.9374 6.22276 19 6.37378 19 6.53125C19 6.68872 18.9374 6.83974 18.8261 6.95109C18.7147 7.06244 18.5637 7.125 18.4062 7.125H13.6562C13.4988 7.125 13.3478 7.06244 13.2364 6.95109C13.1251 6.83974 13.0625 6.68872 13.0625 6.53125Z" fill="white"/>
</svg>
