<svg width="127" height="39" viewBox="0 0 127 39" fill="none" xmlns="http://www.w3.org/2000/svg">
<path d="M62.6305 39V38.9366C62.6937 38.8575 62.8042 38.8099 62.899 38.8258C63.3571 38.8099 63.7994 38.8099 64.2575 38.8258C64.3522 38.8258 64.4628 38.8575 64.526 38.9366V39H62.6305Z" fill="#D1EFFA"/>
<path d="M64.5259 38.9367C63.8941 38.9208 63.2623 38.9208 62.6304 38.9367C61.7617 38.8891 60.8929 38.8575 60.0241 38.7941C57.7179 38.6199 55.4275 38.2715 53.1845 37.7488C45.4288 35.9434 38.6208 32.3166 32.6815 27.0427C32.1287 26.5517 31.6074 26.0449 31.0704 25.5381C30.944 25.4273 30.8334 25.2689 30.7702 25.1105C30.6755 24.8888 30.7229 24.6512 30.8808 24.477C31.0388 24.3028 31.2915 24.2395 31.5127 24.3345C31.6548 24.3978 31.797 24.4612 31.9233 24.5404C37.594 28.0563 43.786 30.622 50.2781 32.1424C52.4579 32.6492 54.6535 33.0451 56.865 33.3302C60.0399 33.7261 63.2465 33.8687 66.4372 33.7578C68.159 33.7103 69.8649 33.5519 71.5709 33.3302C75.5514 32.8234 79.4846 31.9206 83.2914 30.6536C85.2975 29.9885 87.2561 29.2283 89.1674 28.3414C89.4518 28.183 89.7993 28.1355 90.1152 28.2147C90.6365 28.3414 90.9524 28.8798 90.826 29.4025C90.8102 29.4658 90.7786 29.545 90.747 29.6084C90.6207 29.8459 90.4469 30.0518 90.2258 30.2102C88.4092 31.6356 86.4506 32.8867 84.3813 33.932C80.4797 35.9117 76.3096 37.3212 72.0132 38.1289C69.5332 38.5724 67.0375 38.8416 64.5259 38.9367Z" fill="#00A8E1"/>
<path d="M41.1323 6.83403C41.5272 6.59647 41.9379 6.34307 42.3644 6.12135C43.4701 5.5512 44.7022 5.26612 45.95 5.32947C46.8504 5.37698 47.6718 5.63038 48.3036 6.29556C48.9038 6.91322 49.125 7.67342 49.1882 8.49697C49.204 8.67119 49.204 8.8454 49.204 9.03545V17.2393C49.204 17.952 49.1092 18.047 48.3984 18.047H46.4713C46.3449 18.047 46.2186 18.047 46.0922 18.0311C45.9026 18.0153 45.7447 17.8569 45.7131 17.6669C45.6815 17.4927 45.6815 17.3185 45.6815 17.1442V9.81148C45.6973 9.51057 45.6657 9.2255 45.5867 8.94042C45.4604 8.44946 45.0181 8.10103 44.5126 8.06936C43.5807 8.00601 42.6487 8.19606 41.7957 8.592C41.6694 8.62367 41.5904 8.75037 41.6062 8.87707V17.2076C41.6062 17.366 41.6062 17.5085 41.5746 17.6669C41.5746 17.8886 41.4008 18.047 41.1797 18.047C40.9428 18.0628 40.7058 18.0628 40.4531 18.0628H38.7787C38.1943 18.0628 38.0679 17.9203 38.0679 17.3343V9.84316C38.0679 9.57392 38.0521 9.28885 37.9889 9.01961C37.8784 8.48113 37.4203 8.10103 36.8832 8.06936C35.9355 8.00601 34.9719 8.19606 34.119 8.60784C33.9926 8.63951 33.9136 8.78205 33.9452 8.90875V17.3501C33.9452 17.9361 33.8188 18.0628 33.2344 18.0628H31.1177C30.5649 18.0628 30.4227 17.9044 30.4227 17.366V6.37475C30.4227 6.24805 30.4385 6.12135 30.4701 5.99465C30.5333 5.8046 30.7228 5.69373 30.9124 5.69373H32.8869C33.1712 5.69373 33.345 5.86795 33.4397 6.13718C33.5187 6.35891 33.5661 6.5648 33.6451 6.80236C33.803 6.80236 33.8978 6.6915 34.0084 6.62815C34.8772 6.08967 35.7933 5.63039 36.82 5.44033C37.6098 5.28196 38.3996 5.28196 39.1894 5.44033C39.9318 5.59871 40.5952 6.04216 41.0217 6.67566C41.0533 6.72317 41.0849 6.75485 41.1165 6.78652C41.1007 6.80236 41.1165 6.80236 41.1323 6.83403Z" fill="#00A8E1"/>
<path d="M73.8771 14.7211C73.9719 14.4044 74.0666 14.1035 74.1614 13.7867C74.888 11.3319 75.6146 8.89292 76.3412 6.43811L76.436 6.15303C76.515 5.86796 76.7835 5.69374 77.0678 5.69374H79.4688C80.0691 5.69374 80.1954 5.86796 79.9901 6.43811L79.0423 8.95627C77.984 11.712 76.9257 14.4836 75.8674 17.2393C75.8358 17.3343 75.7884 17.4293 75.7568 17.5244C75.6462 17.8569 75.3145 18.0787 74.967 18.047C74.272 18.0312 73.577 18.0312 72.8819 18.047C72.3923 18.0628 72.108 17.8411 71.9342 17.3977C71.5393 16.3524 71.1286 15.2913 70.7337 14.246C69.786 11.7595 68.8224 9.27302 67.8747 6.77069C67.7799 6.58064 67.7167 6.35892 67.6693 6.15303C67.6219 5.83628 67.7325 5.67791 68.0484 5.67791C68.9488 5.66207 69.8491 5.67791 70.7337 5.67791C71.1128 5.67791 71.2866 5.93131 71.3813 6.26389C71.5551 6.86572 71.7288 7.48338 71.9184 8.08521C72.566 10.2866 73.1979 12.5039 73.8455 14.7053C73.8297 14.7211 73.8455 14.7211 73.8771 14.7211Z" fill="white"/>
<path d="M17.7862 7.43585C17.8967 7.40418 17.9915 7.34083 18.0547 7.2458C18.339 6.96073 18.6391 6.69149 18.9551 6.43809C19.7764 5.80459 20.8032 5.48784 21.8299 5.56703C22.2406 5.58286 22.3828 5.70956 22.4143 6.1055C22.4459 6.64398 22.4301 7.19829 22.4301 7.73677C22.4459 7.95849 22.4301 8.16438 22.3986 8.3861C22.3354 8.67118 22.2248 8.78204 21.9405 8.81372C21.7193 8.82955 21.514 8.81371 21.2928 8.79788C20.2345 8.70285 19.2078 8.90874 18.2127 9.24133C17.9915 9.32052 17.9915 9.47889 17.9915 9.6531V17.2551C17.9915 17.3976 17.9915 17.5243 17.9757 17.6669C17.9599 17.8728 17.802 18.0311 17.5966 18.0311C17.486 18.047 17.3597 18.047 17.2491 18.047H15.1957C15.0851 18.047 14.9587 18.047 14.8481 18.0311C14.6428 18.0153 14.4848 17.8411 14.469 17.6352C14.4532 17.5085 14.4532 17.3818 14.4532 17.2551V6.4856C14.4532 5.75708 14.5322 5.67789 15.2588 5.67789H16.7752C17.1859 5.67789 17.3755 5.82043 17.486 6.21636C17.5966 6.6123 17.6914 7.00824 17.7862 7.43585Z" fill="#00A8E1"/>
<path d="M91.6791 23.4951C92.7216 23.5267 93.7483 23.5901 94.7592 23.8593C95.0436 23.9385 95.3121 24.0335 95.5806 24.1602C95.9439 24.3028 96.1809 24.6512 96.2283 25.0313C96.2914 25.4748 96.3072 25.934 96.2756 26.3933C96.0703 29.1015 95.2331 31.7147 93.8431 34.0428C93.3376 34.8822 92.7216 35.6424 92.0108 36.3076C91.8686 36.4501 91.6948 36.561 91.5053 36.6244C91.2052 36.7035 91.0156 36.5452 90.9998 36.2443C91.0156 36.0859 91.0472 35.9275 91.1104 35.7691C91.6633 34.2804 92.2003 32.8075 92.6268 31.2713C92.8795 30.4319 93.0533 29.5767 93.1639 28.7056C93.1955 28.3889 93.2113 28.0721 93.1797 27.7554C93.1639 27.2169 92.8164 26.7576 92.2951 26.5992C91.8054 26.4408 91.3 26.3458 90.7787 26.3141C89.3255 26.2508 87.8723 26.3141 86.4348 26.5042L84.5235 26.7418C84.3182 26.7576 84.1286 26.7418 84.0181 26.5517C83.9075 26.3617 83.9549 26.1716 84.0655 25.9816C84.1918 25.8073 84.3498 25.649 84.5393 25.5381C85.7082 24.6987 87.0193 24.1919 88.4093 23.8593C89.4834 23.6376 90.5733 23.5267 91.6791 23.4951Z" fill="#00A8E1"/>
<path d="M85.0606 11.8704V17.5719C85.029 17.8886 84.8869 18.0312 84.5709 18.047C83.718 18.0628 82.8808 18.0628 82.0278 18.047C81.7119 18.047 81.5697 17.8886 81.5381 17.5877C81.5223 17.4927 81.5223 17.3818 81.5223 17.2868V6.32726C81.5381 5.83629 81.6645 5.69376 82.1542 5.69376H84.4288C84.9184 5.69376 85.0606 5.83629 85.0606 6.32726V11.8704Z" fill="white"/>
<path d="M23.9465 11.8387V6.21637C23.9623 5.83627 24.1045 5.69373 24.4836 5.67789C25.305 5.66206 26.1263 5.66206 26.9477 5.67789C27.311 5.67789 27.4216 5.78876 27.4532 6.15302C27.469 6.29556 27.469 6.42226 27.469 6.56479V17.1126C27.469 17.2868 27.4532 17.461 27.4374 17.6352C27.4216 17.8411 27.2636 17.9836 27.0583 17.9995C26.9635 18.0153 26.8845 18.0153 26.7898 18.0153H24.5941C24.5152 18.0153 24.452 18.0153 24.373 17.9995C24.1519 17.9836 23.9623 17.8094 23.9465 17.5877C23.9307 17.461 23.9307 17.3343 23.9307 17.2076C23.9465 15.4496 23.9465 13.6442 23.9465 11.8387Z" fill="#00A8E1"/>
<path d="M25.7788 0.00808515C26.0315 -0.00775235 26.2842 0.0397602 26.5212 0.118948C27.3742 0.404023 27.8164 1.14839 27.7375 2.11447C27.6743 2.93802 27.0582 3.6032 26.2369 3.7299C25.8893 3.79325 25.526 3.79325 25.1785 3.7299C24.2782 3.55569 23.6147 2.89051 23.6779 1.75021C23.7727 0.625748 24.5151 0.00808515 25.7788 0.00808515Z" fill="#00A8E1"/>
<path d="M83.3072 0.00807187C83.6232 -0.0236031 83.9391 0.0397469 84.2392 0.166447C84.8552 0.404009 85.2817 0.974159 85.3133 1.63933C85.4397 3.08055 84.4761 3.80907 83.1967 3.7774C83.0229 3.7774 82.8492 3.74572 82.6754 3.71405C81.6961 3.47648 81.1906 2.71628 81.2854 1.6235C81.3643 0.752434 82.0436 0.103097 82.9755 0.0239094C83.0861 0.00807187 83.1967 -0.00776563 83.3072 0.00807187Z" fill="white"/>
<path d="M12.1154 10.54C12.0522 9.71647 11.8311 8.90875 11.4994 8.16439C10.8517 6.80237 9.8566 5.8046 8.3402 5.45618C6.60266 5.07608 5.03887 5.45618 3.61725 6.51729C3.52247 6.61232 3.4119 6.6915 3.28553 6.75485C3.25394 6.73902 3.22235 6.72318 3.22235 6.70734C3.17496 6.54897 3.14337 6.39059 3.09598 6.23222C2.96962 5.83628 2.81166 5.69374 2.38517 5.69374C1.9113 5.69374 1.42162 5.70958 0.94775 5.69374C0.584446 5.6779 0.252733 5.72542 0 6.01049C0 11.5536 0 17.1126 0.0157958 22.6399C0.221142 22.9725 0.537058 23.0358 0.900362 23.02C1.46901 23.0041 2.03766 23.02 2.60631 23.02C3.60145 23.02 3.60145 23.02 3.60145 22.038V17.5244C3.60145 17.4135 3.55406 17.2868 3.66463 17.1918C4.45442 17.8094 5.41797 18.1895 6.41311 18.2846C7.80314 18.4271 9.06681 18.0787 10.1251 17.1284C10.8991 16.4157 11.4678 15.4972 11.7679 14.4836C12.1944 13.1849 12.226 11.8704 12.1154 10.54ZM8.3402 13.8184C8.22963 14.3093 7.9769 14.7528 7.61359 15.0854C7.2029 15.4338 6.69743 15.6397 6.16037 15.6397C5.35479 15.6872 4.565 15.513 3.85418 15.1329C3.68043 15.0537 3.56986 14.8795 3.58565 14.6894V11.8229C3.58565 10.8726 3.60145 9.92235 3.58565 8.9721C3.56986 8.75038 3.69622 8.56033 3.90157 8.48114C4.77034 8.06937 5.6707 7.87932 6.61845 8.06937C7.28188 8.16439 7.85053 8.592 8.11906 9.20967C8.356 9.71647 8.49816 10.2708 8.52975 10.8251C8.62453 11.8387 8.62453 12.8523 8.3402 13.8184Z" fill="#00A8E1"/>
<path d="M126.398 10.8884V10.9518C126.335 10.8884 126.303 10.7934 126.335 10.7142V10.5875C126.335 10.5875 126.335 10.5717 126.351 10.5717H126.335V10.4133H126.367C126.367 10.3975 126.351 10.3975 126.351 10.3816C126.319 10.0807 126.256 9.77981 126.177 9.49473C125.593 7.40418 124.282 6.02632 122.149 5.48784C121.154 5.25028 120.143 5.21861 119.132 5.37698C117 5.69373 115.468 6.83403 114.725 8.86123C113.999 10.7934 114.014 12.9156 114.741 14.8478C115.373 16.6058 116.636 17.7144 118.453 18.1737C119.417 18.4112 120.427 18.4746 121.423 18.3321C124.74 17.9361 126.114 15.418 126.335 13.2324H126.319V13.0107C126.303 12.9156 126.288 12.8364 126.382 12.7731V12.8048C126.382 12.7889 126.398 12.7573 126.414 12.7414V10.9201C126.414 10.9043 126.398 10.9043 126.398 10.8884ZM122.607 13.8976C122.512 14.2301 122.37 14.5311 122.165 14.8161C121.817 15.3071 121.265 15.6238 120.664 15.6714C120.364 15.703 120.064 15.703 119.764 15.6397C119.101 15.513 118.548 15.0695 118.279 14.4519C118.042 13.9609 117.9 13.4224 117.853 12.884C117.774 11.9495 117.758 11.0151 117.979 10.0966C118.058 9.7323 118.216 9.36803 118.406 9.05128C118.753 8.48113 119.353 8.11687 120.017 8.06936C120.317 8.03768 120.617 8.03768 120.917 8.10103C121.549 8.22773 122.07 8.63951 122.355 9.2255C122.623 9.77981 122.781 10.3975 122.813 11.0151C122.828 11.3002 122.844 11.5853 122.828 11.8704C122.876 12.5672 122.797 13.2482 122.607 13.8976Z" fill="white"/>
<path d="M98.7082 0.118942H96.5125C95.9123 0.118942 95.8017 0.229805 95.8017 0.83163V5.96298C95.8017 6.07384 95.8491 6.1847 95.7701 6.29557C95.628 6.27973 95.549 6.1847 95.4384 6.12135C93.7957 5.15527 92.0739 4.98105 90.3364 5.78877C89.1201 6.35892 88.3619 7.38835 87.8722 8.60784C87.3983 9.77982 87.2878 11.0151 87.3194 12.2663C87.3194 13.4383 87.5879 14.5944 88.1091 15.6397C88.7094 16.7958 89.5782 17.6827 90.8418 18.0628C92.5636 18.6013 94.1748 18.3321 95.6438 17.2393C95.7543 17.1759 95.8175 17.0651 95.9597 17.0334C96.0387 17.2076 96.1018 17.3977 96.1334 17.5877C96.1966 17.8411 96.4178 18.0153 96.6863 18.0153H97.0654C97.634 18.0153 98.1869 18.0312 98.7397 18.0153C99.182 18.0153 99.3084 17.8728 99.3242 17.4135V0.720767C99.3084 0.229805 99.182 0.118942 98.7082 0.118942ZM95.8175 11.7753V14.6578C95.8491 14.8478 95.7385 15.022 95.5648 15.1012C94.8066 15.5288 93.9378 15.703 93.0848 15.5763C92.3582 15.4972 91.7264 15.0537 91.3947 14.4044C91.1419 13.8976 90.9998 13.3591 90.9524 12.8048C90.826 11.807 90.905 10.7934 91.142 9.82733C91.2209 9.55809 91.3157 9.30469 91.4579 9.05129C91.7896 8.43363 92.4214 8.03769 93.1164 7.99018C93.9536 7.91099 94.7908 8.06937 95.549 8.41779C95.7385 8.48114 95.8491 8.67119 95.8333 8.87708C95.8017 9.859 95.8175 10.8093 95.8175 11.7753Z" fill="white"/>
<path d="M54.9695 12.8681C56.1542 13.0898 57.3705 13.1057 58.5552 12.9156C59.2502 12.8206 59.9136 12.6147 60.5297 12.2821C61.2405 11.8704 61.7617 11.3002 61.9829 10.5083C62.5357 8.5128 61.6827 6.50144 59.6135 5.75708C58.6026 5.42449 57.5284 5.31363 56.4701 5.45617C53.9744 5.74124 52.3474 7.1191 51.605 9.51057C51.0837 11.1418 51.1469 12.8048 51.5734 14.4519C52.1263 16.5583 53.5163 17.8094 55.6171 18.2529C56.8176 18.5221 58.0339 18.4746 59.2344 18.2845C59.8662 18.1737 60.4981 18.0153 61.0983 17.7777C61.4616 17.6352 61.6512 17.4135 61.6354 17.0017C61.6196 16.6216 61.6354 16.2257 61.6354 15.8297C61.6354 15.3546 61.4458 15.2121 60.9877 15.3229C60.5297 15.4338 60.0874 15.5288 59.6293 15.6238C58.6499 15.8297 57.639 15.8297 56.6597 15.6555C55.317 15.3863 54.4483 14.2301 54.5272 12.8048C54.6694 12.8206 54.8274 12.8364 54.9695 12.8681ZM54.5746 10.445C54.622 10.0649 54.7326 9.70062 54.8747 9.35219C55.3486 8.19605 56.3438 7.80012 57.3547 7.86347C57.639 7.8793 57.9233 7.94265 58.1919 8.05352C58.6026 8.22773 58.8711 8.60783 58.9185 9.05128C58.9659 9.32052 58.9501 9.60559 58.8711 9.87483C58.6815 10.445 58.2235 10.6825 57.6706 10.7934C57.3389 10.8726 56.9914 10.9043 56.6439 10.8726C56.0278 10.8726 55.396 10.8251 54.78 10.7301C54.543 10.6984 54.543 10.6984 54.5746 10.445Z" fill="#00A8E1"/>
<path d="M108.249 13.0265C109.165 12.9632 110.081 12.7889 110.903 12.3455C111.74 11.9337 112.324 11.1577 112.498 10.2391C112.608 9.66895 112.608 9.06713 112.482 8.49698C112.15 7.0716 111.25 6.1847 109.892 5.72542C109.133 5.48785 108.328 5.39283 107.538 5.4245C104.884 5.48785 102.862 6.83404 102.041 9.49474C101.488 11.2527 101.567 13.0423 102.104 14.8003C102.657 16.6058 103.921 17.6986 105.721 18.1895C106.495 18.3796 107.301 18.4588 108.091 18.4271C109.244 18.4113 110.397 18.1895 111.487 17.7778C111.945 17.6035 112.056 17.4452 112.056 16.9542V15.8139C112.04 15.3546 111.85 15.1962 111.392 15.3071C111.045 15.4021 110.713 15.4813 110.365 15.5605C109.307 15.8139 108.201 15.8614 107.127 15.6714C106.053 15.4655 105.327 14.8478 105.042 13.7709C104.963 13.4541 104.9 13.1374 104.869 12.8048C104.947 12.8048 105.026 12.8048 105.09 12.8365C106.132 13.0265 107.19 13.1057 108.249 13.0265ZM104.947 10.4925C105.058 9.87484 105.2 9.27302 105.579 8.76622C106.164 7.99018 106.969 7.76845 107.886 7.86348C107.964 7.86348 108.028 7.89515 108.107 7.89515C109.212 8.06937 109.481 8.95627 109.276 9.81149C109.118 10.445 108.596 10.6826 108.012 10.7934C107.696 10.8568 107.364 10.8884 107.033 10.8726C106.385 10.8568 105.753 10.8093 105.121 10.7142C104.979 10.6984 104.916 10.635 104.947 10.4925Z" fill="white"/>
</svg>
