<svg width="23" height="23" viewBox="0 0 23 23" fill="none" xmlns="http://www.w3.org/2000/svg">
<path d="M20.4305 19.1929L14.5974 13.3598C15.5025 12.1896 15.9922 10.7588 15.9922 9.25391C15.9922 7.45254 15.2892 5.76348 14.0179 4.48994C12.7466 3.21641 11.053 2.51562 9.25391 2.51562C7.45479 2.51562 5.76123 3.21865 4.48994 4.48994C3.21641 5.76123 2.51562 7.45254 2.51562 9.25391C2.51562 11.053 3.21865 12.7466 4.48994 14.0179C5.76123 15.2914 7.45254 15.9922 9.25391 15.9922C10.7588 15.9922 12.1873 15.5025 13.3575 14.5996L19.1906 20.4305C19.2077 20.4476 19.228 20.4612 19.2504 20.4704C19.2727 20.4797 19.2967 20.4845 19.3209 20.4845C19.3451 20.4845 19.3691 20.4797 19.3914 20.4704C19.4138 20.4612 19.4341 20.4476 19.4512 20.4305L20.4305 19.4534C20.4476 19.4363 20.4612 19.416 20.4704 19.3937C20.4797 19.3713 20.4845 19.3473 20.4845 19.3231C20.4845 19.2989 20.4797 19.275 20.4704 19.2526C20.4612 19.2303 20.4476 19.21 20.4305 19.1929V19.1929ZM12.8117 12.8117C11.8594 13.7618 10.5971 14.2852 9.25391 14.2852C7.91074 14.2852 6.64844 13.7618 5.69609 12.8117C4.746 11.8594 4.22266 10.5971 4.22266 9.25391C4.22266 7.91074 4.746 6.64619 5.69609 5.69609C6.64844 4.746 7.91074 4.22266 9.25391 4.22266C10.5971 4.22266 11.8616 4.74375 12.8117 5.69609C13.7618 6.64844 14.2852 7.91074 14.2852 9.25391C14.2852 10.5971 13.7618 11.8616 12.8117 12.8117Z" fill="white"/>
</svg>
